<?xml version="1.0" encoding="utf-8"?>
<!-- Generator: Adobe Illustrator 15.0.0, SVG Export Plug-In . SVG Version: 6.00 Build 0)  -->
<!DOCTYPE svg PUBLIC "-//W3C//DTD SVG 1.1//EN" "http://www.w3.org/Graphics/SVG/1.1/DTD/svg11.dtd">
<svg version="1.1" xmlns="http://www.w3.org/2000/svg" xmlns:xlink="http://www.w3.org/1999/xlink" x="0px" y="0px"
	 width="308.081px" height="205.013px" viewBox="0 0 308.081 205.013" enable-background="new 0 0 308.081 205.013"
	 xml:space="preserve">
<g id="Layer_2">
</g>
<g id="Layer_1">
	<g>
		<path fill="#D4C9A3" d="M43.283,204.647c-8.043,1.834-15.091-3.398-15.662-11.629L17.029,40.279
			c-0.571-8.23,5.682-15.603,13.895-16.383L281.726,0.067c8.213-0.78,15.519,5.306,16.235,13.524l10.062,115.447
			c0.717,8.219-5.278,16.444-13.322,18.278L43.283,204.647z"/>
	</g>
	<g>
		<path fill="#D4C9A3" d="M37.325,156.315c0,8.25-6.516,16.764-14.479,18.919L7.47,179.396c-7.963,2.155-9.865-1.008-4.225-7.029
			l23.826-25.438c5.64-6.021,10.254-4.198,10.254,4.052V156.315z"/>
	</g>
</g>
</svg>
